<svg xmlns="http://www.w3.org/2000/svg" viewBox="0 0 100 180" fill="rgba(213,159,57,0.4)" stroke="rgba(213,159,57,0.8)" stroke-width="1.5">
  <!-- Cabe?a -->
  <ellipse cx="50" cy="22" rx="14" ry="16"/>
  <!-- Pesco?o -->
  <rect x="44" y="36" width="12" height="10" rx="2"/>
  <!-- Tronco - figura balanceada/atl?tica -->
  <path d="M 38 46 Q 35 55 36 70 L 36 90 Q 35 105 38 115 L 40 125 Q 42 132 50 135 Q 58 132 60 125 L 62 115 Q 65 105 64 90 L 64 70 Q 65 55 62 46 Z"/>
  <!-- Bra?os - m?os nos quadris -->
  <path d="M 38 55 Q 28 60 25 75 L 22 85 Q 20 90 28 92 L 35 88 Q 38 82 36 75 Z"/>
  <path d="M 62 55 Q 72 60 75 75 L 78 85 Q 80 90 72 92 L 65 88 Q 62 82 64 75 Z"/>
  <!-- Quadril -->
  <path d="M 38 132 Q 35 145 38 155 L 42 168 L 58 168 L 62 155 Q 65 145 62 132 Z"/>
  <!-- Pernas -->
  <path d="M 42 168 L 40 178 L 38 178 L 36 168 Z"/>
  <path d="M 58 168 L 60 178 L 62 178 L 64 168 Z"/>
</svg>
